<?xml version="1.0" encoding="utf-8"?>
<!-- Generator: Adobe Illustrator 16.0.0, SVG Export Plug-In . SVG Version: 6.00 Build 0)  -->
<!DOCTYPE svg PUBLIC "-//W3C//DTD SVG 1.1//EN" "http://www.w3.org/Graphics/SVG/1.1/DTD/svg11.dtd">
<svg version="1.1" id="Layer_2" xmlns="http://www.w3.org/2000/svg" xmlns:xlink="http://www.w3.org/1999/xlink" x="0px" y="0px"
	 width="480px" height="480px" viewBox="0 0 480 480" enable-background="new 0 0 480 480" xml:space="preserve">
<g>
	<g id="XMLID_1_">
		<g>
			<rect x="440" y="260" fill="#161616" width="20" height="20"/>
			<rect x="440" y="240" fill="#161616" width="20" height="20"/>
			<rect x="440" y="220" fill="#161616" width="20" height="20"/>
			<rect x="420" y="280" fill="#161616" width="20" height="20"/>
			<rect x="420" y="260" fill="#964816" width="20" height="20"/>
			<rect x="420" y="240" fill="#964816" width="20" height="20"/>
			<rect x="420" y="220" fill="#964816" width="20" height="20"/>
			<rect x="420" y="200" fill="#161616" width="20" height="20"/>
			<rect x="400" y="300" fill="#161616" width="20" height="20"/>
			<rect x="400" y="280" fill="#964816" width="20" height="20"/>
			<rect x="400" y="260" fill="#964816" width="20" height="20"/>
			<rect x="400" y="240" fill="#161616" width="20" height="20"/>
			<rect x="400" y="220" fill="#964816" width="20" height="20"/>
			<rect x="400" y="200" fill="#161616" width="20" height="20"/>
			<rect x="380" y="300" fill="#161616" width="20" height="20"/>
			<rect x="380" y="280" fill="#964816" width="20" height="20"/>
			<rect x="380" y="260" fill="#161616" width="20" height="20"/>
			<rect x="380" y="240" fill="#161616" width="20" height="20"/>
			<rect x="380" y="220" fill="#161616" width="20" height="20"/>
			<rect x="380" y="200" fill="#161616" width="20" height="20"/>
			<rect x="380" y="180" fill="#161616" width="20" height="20"/>
			<rect x="360" y="300" fill="#161616" width="20" height="20"/>
			<rect x="360" y="280" fill="#161616" width="20" height="20"/>
			<rect x="360" y="260" fill="#FADCB4" width="20" height="20"/>
			<rect x="360" y="240" fill="#FAB464" width="20" height="20"/>
			<rect x="360" y="220" fill="#964816" width="20" height="20"/>
			<rect x="360" y="200" fill="#964816" width="20" height="20"/>
			<rect x="360" y="180" fill="#964816" width="20" height="20"/>
			<rect x="360" y="160" fill="#161616" width="20" height="20"/>
			<rect x="360" y="140" fill="#161616" width="20" height="20"/>
			<rect x="340" y="320" fill="#161616" width="20" height="20"/>
			<rect x="340" y="300" fill="#964816" width="20" height="20"/>
			<rect x="340" y="280" fill="#FADCB4" width="20" height="20"/>
			<rect x="340" y="260" fill="#FADCB4" width="20" height="20"/>
			<rect x="340" y="240" fill="#FADCB4" width="20" height="20"/>
			<rect x="340" y="220" fill="#FAB464" width="20" height="20"/>
			<rect x="340" y="200" fill="#FAB464" width="20" height="20"/>
			<rect x="340" y="180" fill="#964816" width="20" height="20"/>
			<rect x="340" y="160" fill="#964816" width="20" height="20"/>
			<rect x="340" y="140" fill="#964816" width="20" height="20"/>
			<rect x="340" y="120" fill="#161616" width="20" height="20"/>
			<rect x="320" y="340" fill="#161616" width="20" height="20"/>
			<rect x="320" y="320" fill="#964816" width="20" height="20"/>
			<rect x="320" y="300" fill="#FADCB4" width="20" height="20"/>
			<rect x="320" y="280" fill="#FADCB4" width="20" height="20"/>
			<rect x="320" y="260" fill="#FADCB4" width="20" height="20"/>
			<rect x="320" y="240" fill="#FADCB4" width="20" height="20"/>
			<rect x="320" y="220" fill="#FADCB4" width="20" height="20"/>
			<rect x="320" y="200" fill="#FADCB4" width="20" height="20"/>
			<rect x="320" y="180" fill="#FAB464" width="20" height="20"/>
			<rect x="320" y="160" fill="#964816" width="20" height="20"/>
			<rect x="320" y="140" fill="#964816" width="20" height="20"/>
			<rect x="320" y="120" fill="#161616" width="20" height="20"/>
			<rect x="300" y="340" fill="#161616" width="20" height="20"/>
			<rect x="300" y="320" fill="#FADCB4" width="20" height="20"/>
			<rect x="300" y="300" fill="#FADCB4" width="20" height="20"/>
			<rect x="300" y="280" fill="#161616" width="20" height="20"/>
			<rect x="300" y="260" fill="#161616" width="20" height="20"/>
			<rect x="300" y="240" fill="#FADCB4" width="20" height="20"/>
			<rect x="300" y="220" fill="#161616" width="20" height="20"/>
			<rect x="300" y="200" fill="#161616" width="20" height="20"/>
			<rect x="300" y="180" fill="#FADCB4" width="20" height="20"/>
			<rect x="300" y="160" fill="#FAB464" width="20" height="20"/>
			<rect x="300" y="140" fill="#964816" width="20" height="20"/>
			<rect x="300" y="120" fill="#964816" width="20" height="20"/>
			<rect x="300" y="100" fill="#161616" width="20" height="20"/>
			<rect x="280" y="360" fill="#161616" width="20" height="20"/>
			<rect x="280" y="340" fill="#FADCB4" width="20" height="20"/>
			<rect x="280" y="320" fill="#FADCB4" width="20" height="20"/>
			<rect x="280" y="300" fill="#161616" width="20" height="20"/>
			<rect x="280" y="280" fill="#C80064" width="20" height="20"/>
			<rect x="280" y="260" fill="#161616" width="20" height="20"/>
			<rect x="280" y="240" fill="#FADCB4" width="20" height="20"/>
			<rect x="280" y="220" fill="#161616" width="20" height="20"/>
			<rect x="280" y="200" fill="#FAFAFA" width="20" height="20"/>
			<rect x="280" y="180" fill="#FADCB4" width="20" height="20"/>
			<rect x="280" y="160" fill="#FAB464" width="20" height="20"/>
			<rect x="280" y="140" fill="#964816" width="20" height="20"/>
			<rect x="280" y="120" fill="#964816" width="20" height="20"/>
			<rect x="280" y="100" fill="#161616" width="20" height="20"/>
			<rect x="260" y="360" fill="#161616" width="20" height="20"/>
			<rect x="260" y="340" fill="#FADCB4" width="20" height="20"/>
			<rect x="260" y="320" fill="#161616" width="20" height="20"/>
			<rect x="260" y="300" fill="#C80064" width="20" height="20"/>
			<rect x="260" y="280" fill="#C80064" width="20" height="20"/>
			<rect x="260" y="260" fill="#161616" width="20" height="20"/>
			<rect x="260" y="240" fill="#FADCB4" width="20" height="20"/>
			<rect x="260" y="220" fill="#FADCB4" width="20" height="20"/>
			<rect x="260" y="200" fill="#FADCB4" width="20" height="20"/>
			<rect x="260" y="180" fill="#FAB464" width="20" height="20"/>
			<rect x="260" y="160" fill="#964816" width="20" height="20"/>
			<rect x="260" y="140" fill="#964816" width="20" height="20"/>
			<rect x="260" y="120" fill="#964816" width="20" height="20"/>
			<rect x="260" y="100" fill="#161616" width="20" height="20"/>
			<rect x="240" y="360" fill="#161616" width="20" height="20"/>
			<rect x="240" y="340" fill="#FADCB4" width="20" height="20"/>
			<rect x="240" y="320" fill="#161616" width="20" height="20"/>
			<rect x="240" y="300" fill="#C80064" width="20" height="20"/>
			<rect x="240" y="280" fill="#C80064" width="20" height="20"/>
			<rect x="240" y="260" fill="#161616" width="20" height="20"/>
			<rect x="240" y="240" fill="#FADCB4" width="20" height="20"/>
			<rect x="240" y="220" fill="#FADCB4" width="20" height="20"/>
			<rect x="240" y="200" fill="#FAB464" width="20" height="20"/>
			<rect x="240" y="180" fill="#964816" width="20" height="20"/>
			<rect x="240" y="160" fill="#964816" width="20" height="20"/>
			<rect x="240" y="140" fill="#964816" width="20" height="20"/>
			<rect x="240" y="120" fill="#964816" width="20" height="20"/>
			<rect x="240" y="100" fill="#161616" width="20" height="20"/>
			<rect x="220" y="360" fill="#161616" width="20" height="20"/>
			<rect x="220" y="340" fill="#FADCB4" width="20" height="20"/>
			<rect x="220" y="320" fill="#161616" width="20" height="20"/>
			<rect x="220" y="300" fill="#FAB4B4" width="20" height="20"/>
			<rect x="220" y="280" fill="#C80064" width="20" height="20"/>
			<rect x="220" y="260" fill="#161616" width="20" height="20"/>
			<rect x="220" y="240" fill="#FADCB4" width="20" height="20"/>
			<rect x="220" y="220" fill="#FADCB4" width="20" height="20"/>
			<rect x="220" y="200" fill="#FAB464" width="20" height="20"/>
			<rect x="220" y="180" fill="#964816" width="20" height="20"/>
			<rect x="220" y="160" fill="#964816" width="20" height="20"/>
			<rect x="220" y="140" fill="#964816" width="20" height="20"/>
			<rect x="220" y="120" fill="#964816" width="20" height="20"/>
			<rect x="220" y="100" fill="#161616" width="20" height="20"/>
			<rect x="200" y="360" fill="#161616" width="20" height="20"/>
			<rect x="200" y="340" fill="#FADCB4" width="20" height="20"/>
			<rect x="200" y="320" fill="#161616" width="20" height="20"/>
			<rect x="200" y="300" fill="#FAB4B4" width="20" height="20"/>
			<rect x="200" y="280" fill="#C80064" width="20" height="20"/>
			<rect x="200" y="260" fill="#161616" width="20" height="20"/>
			<rect x="200" y="240" fill="#FADCB4" width="20" height="20"/>
			<rect x="200" y="220" fill="#FADCB4" width="20" height="20"/>
			<rect x="200" y="200" fill="#FADCB4" width="20" height="20"/>
			<rect x="200" y="180" fill="#FAB464" width="20" height="20"/>
			<rect x="200" y="160" fill="#964816" width="20" height="20"/>
			<rect x="200" y="140" fill="#964816" width="20" height="20"/>
			<rect x="200" y="120" fill="#964816" width="20" height="20"/>
			<rect x="200" y="100" fill="#161616" width="20" height="20"/>
			<rect x="180" y="360" fill="#161616" width="20" height="20"/>
			<rect x="180" y="340" fill="#FADCB4" width="20" height="20"/>
			<rect x="180" y="320" fill="#FADCB4" width="20" height="20"/>
			<rect x="180" y="300" fill="#161616" width="20" height="20"/>
			<rect x="180" y="280" fill="#C80064" width="20" height="20"/>
			<rect x="180" y="260" fill="#161616" width="20" height="20"/>
			<rect x="180" y="240" fill="#FADCB4" width="20" height="20"/>
			<rect x="180" y="220" fill="#161616" width="20" height="20"/>
			<rect x="180" y="200" fill="#161616" width="20" height="20"/>
			<rect x="180" y="180" fill="#FADCB4" width="20" height="20"/>
			<rect x="180" y="160" fill="#FAB464" width="20" height="20"/>
			<rect x="180" y="140" fill="#964816" width="20" height="20"/>
			<rect x="180" y="120" fill="#964816" width="20" height="20"/>
			<rect x="180" y="100" fill="#161616" width="20" height="20"/>
			<rect x="160" y="340" fill="#161616" width="20" height="20"/>
			<rect x="160" y="320" fill="#FADCB4" width="20" height="20"/>
			<rect x="160" y="300" fill="#FADCB4" width="20" height="20"/>
			<rect x="160" y="280" fill="#161616" width="20" height="20"/>
			<rect x="160" y="260" fill="#161616" width="20" height="20"/>
			<rect x="160" y="240" fill="#FADCB4" width="20" height="20"/>
			<rect x="160" y="220" fill="#161616" width="20" height="20"/>
			<rect x="160" y="200" fill="#FAFAFA" width="20" height="20"/>
			<rect x="160" y="180" fill="#FADCB4" width="20" height="20"/>
			<rect x="160" y="160" fill="#FAB464" width="20" height="20"/>
			<rect x="160" y="140" fill="#964816" width="20" height="20"/>
			<rect x="160" y="120" fill="#964816" width="20" height="20"/>
			<rect x="160" y="100" fill="#161616" width="20" height="20"/>
			<rect x="140" y="340" fill="#161616" width="20" height="20"/>
			<rect x="140" y="320" fill="#964816" width="20" height="20"/>
			<rect x="140" y="300" fill="#FADCB4" width="20" height="20"/>
			<rect x="140" y="280" fill="#FADCB4" width="20" height="20"/>
			<rect x="140" y="260" fill="#FADCB4" width="20" height="20"/>
			<rect x="140" y="240" fill="#FADCB4" width="20" height="20"/>
			<rect x="140" y="220" fill="#FADCB4" width="20" height="20"/>
			<rect x="140" y="200" fill="#FADCB4" width="20" height="20"/>
			<rect x="140" y="180" fill="#FAB464" width="20" height="20"/>
			<rect x="140" y="160" fill="#964816" width="20" height="20"/>
			<rect x="140" y="140" fill="#964816" width="20" height="20"/>
			<rect x="140" y="120" fill="#161616" width="20" height="20"/>
			<rect x="120" y="320" fill="#161616" width="20" height="20"/>
			<rect x="120" y="300" fill="#964816" width="20" height="20"/>
			<rect x="120" y="280" fill="#FADCB4" width="20" height="20"/>
			<rect x="120" y="260" fill="#FADCB4" width="20" height="20"/>
			<rect x="120" y="240" fill="#FADCB4" width="20" height="20"/>
			<rect x="120" y="220" fill="#FAB464" width="20" height="20"/>
			<rect x="120" y="200" fill="#FAB464" width="20" height="20"/>
			<rect x="120" y="180" fill="#964816" width="20" height="20"/>
			<rect x="120" y="160" fill="#964816" width="20" height="20"/>
			<rect x="120" y="140" fill="#964816" width="20" height="20"/>
			<rect x="120" y="120" fill="#161616" width="20" height="20"/>
			<rect x="100" y="300" fill="#161616" width="20" height="20"/>
			<rect x="100" y="280" fill="#161616" width="20" height="20"/>
			<rect x="100" y="260" fill="#FADCB4" width="20" height="20"/>
			<rect x="100" y="240" fill="#FAB464" width="20" height="20"/>
			<rect x="100" y="220" fill="#964816" width="20" height="20"/>
			<rect x="100" y="200" fill="#964816" width="20" height="20"/>
			<rect x="100" y="180" fill="#964816" width="20" height="20"/>
			<rect x="100" y="160" fill="#161616" width="20" height="20"/>
			<rect x="100" y="140" fill="#161616" width="20" height="20"/>
			<rect x="80" y="300" fill="#161616" width="20" height="20"/>
			<rect x="80" y="280" fill="#964816" width="20" height="20"/>
			<rect x="80" y="260" fill="#161616" width="20" height="20"/>
			<rect x="80" y="240" fill="#161616" width="20" height="20"/>
			<rect x="80" y="220" fill="#161616" width="20" height="20"/>
			<rect x="80" y="200" fill="#161616" width="20" height="20"/>
			<rect x="80" y="180" fill="#161616" width="20" height="20"/>
			<rect x="60" y="300" fill="#161616" width="20" height="20"/>
			<rect x="60" y="280" fill="#964816" width="20" height="20"/>
			<rect x="60" y="260" fill="#964816" width="20" height="20"/>
			<rect x="60" y="240" fill="#161616" width="20" height="20"/>
			<rect x="60" y="220" fill="#964816" width="20" height="20"/>
			<rect x="60" y="200" fill="#161616" width="20" height="20"/>
			<rect x="40" y="280" fill="#161616" width="20" height="20"/>
			<rect x="40" y="260" fill="#964816" width="20" height="20"/>
			<rect x="40" y="240" fill="#964816" width="20" height="20"/>
			<rect x="40" y="220" fill="#964816" width="20" height="20"/>
			<rect x="40" y="200" fill="#161616" width="20" height="20"/>
			<rect x="20" y="260" fill="#161616" width="20" height="20"/>
			<rect x="20" y="240" fill="#161616" width="20" height="20"/>
			<rect x="20" y="220" fill="#161616" width="20" height="20"/>
		</g>
		<g>
		</g>
	</g>
</g>
</svg>
